<svg version="1.2" xmlns="http://www.w3.org/2000/svg" viewBox="0 0 24 24" width="24" height="24">
	<title>linkedin-svg</title>
	<style>
		.s0 { fill: #ffffff } 
	</style>
	<path id="Layer" fill-rule="evenodd" class="s0" d="m22.2 0c1 0 1.8 0.8 1.8 1.7v20.6c0 0.9-0.8 1.7-1.8 1.7h-20.4c-1 0-1.8-0.8-1.8-1.7v-20.6c0-0.9 0.8-1.7 1.8-1.7zm-14.9 5.4c0-1.2-0.9-2.1-2-2.1-1.2 0-2.1 0.9-2.1 2.1 0 1.1 0.9 2 2.1 2 1.1 0 2-0.9 2-2zm-0.2 3.6h-3.6v11.5h3.6zm13.3 5.1c0-3.1-0.7-5.4-4.3-5.4-1.7 0-2.9 0.9-3.3 1.8h-0.1v-1.5h-3.4v11.4h3.6v-5.7c0-1.5 0.2-2.9 2.1-2.9 1.8 0 1.8 1.7 1.8 3v5.6h3.6c0 0 0-6.3 0-6.3z"/>
</svg>