<svg version="1.2" xmlns="http://www.w3.org/2000/svg" viewBox="0 0 512 512" width="512" height="512">
	<title>logo-instagram-svg</title>
	<style>
		.s0 { fill: #ffffff } 
	</style>
	<path id="Layer" fill-rule="evenodd" class="s0" d="m480 162.7v186.6c0 71.9-58.8 130.7-130.7 130.7h-186.6c-71.9 0-130.7-58.8-130.7-130.7v-186.6c0-71.9 58.8-130.7 130.7-130.7h186.6c71.9 0 130.7 58.8 130.7 130.7zm-317.3-93.4c-12.3 0.1-24.4 2.5-35.7 7.2-11.3 4.7-21.6 11.6-30.2 20.3-8.7 8.6-15.6 18.9-20.3 30.2-4.7 11.3-7.1 23.4-7.2 35.7v186.6c0.1 12.3 2.5 24.4 7.2 35.7 4.7 11.3 11.6 21.6 20.3 30.2 8.6 8.7 18.9 15.6 30.2 20.3 11.3 4.7 23.4 7.1 35.7 7.2h186.6c12.3-0.1 24.4-2.5 35.7-7.2 11.3-4.7 21.6-11.6 30.2-20.3 8.7-8.6 15.6-18.9 20.3-30.2 4.7-11.3 7.1-23.4 7.2-35.7v-186.6c-0.1-12.3-2.5-24.4-7.2-35.7-4.7-11.3-11.6-21.6-20.3-30.2-8.6-8.7-18.9-15.6-30.2-20.3-11.3-4.7-23.4-7.1-35.7-7.2z"/>
	<path id="Layer" fill-rule="evenodd" class="s0" d="m377.3 162.7c-11.3 0-21.5-6.9-25.8-17.3-4.4-10.5-2-22.5 6-30.5 8-8 20.1-10.4 30.5-6.1 10.5 4.3 17.3 14.5 17.3 25.9 0 3.6-0.7 7.3-2.1 10.7-1.4 3.4-3.5 6.5-6.1 9.1-2.6 2.6-5.6 4.7-9 6.1-3.4 1.4-7.1 2.1-10.8 2.1zm-78.4-10.2c13.5 5.7 25.9 13.9 36.3 24.3 10.4 10.4 18.6 22.8 24.3 36.3 5.6 13.6 8.5 28.2 8.5 42.9 0 45.3-27.3 86.1-69.1 103.5-41.9 17.3-90.1 7.7-122.1-24.3-32-32-41.6-80.2-24.3-122.1 17.4-41.8 58.2-69.1 103.5-69.1 14.7 0 29.3 2.9 42.9 8.5zm-71.5 34.5c-9 3.8-17.2 9.3-24.2 16.2-6.9 7-12.4 15.2-16.2 24.2-3.7 9.1-5.7 18.8-5.7 28.6 0 30.2 18.2 57.4 46.1 69 27.9 11.5 60 5.2 81.4-16.2 21.4-21.4 27.7-53.5 16.2-81.4-11.6-27.9-38.8-46.1-69-46.1-9.8 0-19.5 2-28.6 5.7z"/>
</svg>