<svg version="1.2" xmlns="http://www.w3.org/2000/svg" viewBox="0 0 512 512" width="512" height="512">
	<title>logo-youtube-svg</title>
	<style>
		.s0 { fill: #ffffff } 
	</style>
	<path id="Layer" fill-rule="evenodd" class="s0" d="m511.9 255.7c0.1 35.7-1 71.3-3.4 107 0 45-33.1 81.5-74 81.5q-87.4 4.1-178.6 3.8c-60.7 0.1-120.4-1.1-178.6-3.8-40.8 0-73.9-36.5-73.9-81.5q-3.5-53.5-3.4-106.9c-0.1-35.6 1-71.2 3.5-106.8 0-45 33.1-81.4 73.9-81.4 55.4-2.6 112-3.6 169.6-3.6h18c57.7 0 114.2 1 169.6 3.6 40.9 0 74 36.2 74 81.2q3.6 53.5 3.3 106.9zm-159.9-0.1l-145-98.2v196.5z"/>
</svg>