<svg version="1.2" xmlns="http://www.w3.org/2000/svg" viewBox="0 0 24 24" width="24" height="24">
	<title>whatsapp-svg</title>
	<style>
		.s0 { fill: #ffffff } 
	</style>
	<path id="Layer" fill-rule="evenodd" class="s0" d="m21.9 5.3q0.7 1 1.1 2 0.5 1.1 0.7 2.3 0.2 1.1 0.2 2.3c0 6.6-5.3 11.9-11.8 11.9h-0.1q-0.7 0-1.4-0.1-0.8-0.1-1.5-0.3-0.7-0.2-1.4-0.4-0.7-0.3-1.3-0.7l-6.3 1.7 1.6-6.2c-1-1.8-1.5-3.8-1.5-5.9 0-6.6 5.3-11.9 11.9-11.9q1.1 0 2.3 0.2 1.1 0.3 2.2 0.7 1.1 0.5 2.1 1.1 0.9 0.7 1.8 1.5 0.8 0.8 1.4 1.8zm0 6.6q0-1-0.2-1.9-0.1-1-0.5-1.9-0.4-0.9-0.9-1.7-0.6-0.8-1.3-1.5c-1.8-1.9-4.3-2.9-6.9-2.9-5.5 0-9.9 4.4-9.9 9.9q0 0.7 0.1 1.4 0.1 0.7 0.2 1.3 0.2 0.7 0.5 1.3 0.3 0.7 0.7 1.3l0.2 0.3-1 3.7 3.8-1 0.3 0.2q0.6 0.3 1.2 0.6 0.6 0.3 1.2 0.4 0.7 0.2 1.3 0.3 0.7 0.1 1.3 0.1c5.5 0 9.9-4.4 9.9-9.9zm-3.9 2.8c0.1 0.2 0.1 0.7-0.1 1.4-0.3 0.7-1.5 1.4-2 1.5-0.5 0-1.2 0.1-1.9-0.2-0.4-0.1-1-0.3-1.7-0.6-3-1.3-4.9-4.3-5.1-4.5-0.1-0.2-1.2-1.6-1.2-3 0-1.5 0.8-2.2 1-2.5 0.3-0.3 0.6-0.4 0.8-0.4q0.3 0 0.6 0c0.2 0 0.4-0.1 0.7 0.5 0.2 0.6 0.8 2.1 0.9 2.2 0.1 0.2 0.1 0.3 0 0.5-0.1 0.2-0.1 0.4-0.3 0.5-0.1 0.2-0.3 0.4-0.4 0.6-0.2 0.1-0.3 0.3-0.2 0.6 0.2 0.3 0.8 1.2 1.7 2 1.1 1 2.1 1.4 2.4 1.5 0.3 0.2 0.5 0.1 0.6-0.1 0.2-0.2 0.8-0.8 1-1.1 0.2-0.3 0.4-0.3 0.6-0.2 0.3 0.1 1.8 0.8 2.1 1 0.3 0.1 0.5 0.2 0.5 0.3z"/>
</svg>